<?xml version="1.0" encoding="iso-8859-1"?>
<!-- Uploaded to: SVG Repo, www.svgrepo.com, Generator: SVG Repo Mixer Tools -->
<svg xmlns="http://www.w3.org/2000/svg" xmlns:xlink="http://www.w3.org/1999/xlink" version="1.1" id="Layer_1"  viewBox="0 0 502 502" xml:space="preserve" width="512" height="512">
<g>
	<g>
		<g>
			<rect x="106.803" y="52.351" style="fill:#4D4D4D;" width="32.268" height="439.649"/>
			<rect x="362.929" y="52.351" style="fill:#4D4D4D;" width="32.268" height="439.649"/>
		</g>
		<rect x="139.071" y="68.485" style="fill:#CCCCCC;" width="223.858" height="83.695"/>
		<path style="fill:#FF931E;" d="M271.167,68.485h-40.335V30.167C230.833,19.029,239.862,10,251,10h0    c11.138,0,20.167,9.029,20.167,20.167V68.485z"/>
	</g>
	<g>
		<path d="M395.196,42.352h-32.268c-5.522,0-10,4.477-10,10v6.134h-71.762V30.167C281.167,13.533,267.634,0,251,0    s-30.167,13.533-30.167,30.167v28.318h-71.762v-6.134c0-5.523-4.478-10-10-10h-32.268c-5.522,0-10,4.477-10,10V492    c0,5.523,4.478,10,10,10h32.268c5.522,0,10-4.477,10-10V162.18h203.857V492c0,5.523,4.478,10,10,10h32.268c5.522,0,10-4.477,10-10    V52.352C405.196,46.829,400.719,42.352,395.196,42.352z M240.833,30.167C240.833,24.561,245.394,20,251,20    s10.167,4.561,10.167,10.167v28.318h-20.334V30.167z M129.071,482h-12.268V62.352h12.268V482z M352.929,78.485v63.694H149.071    V78.485H352.929z M372.929,62.352h12.268V482h-12.268V62.352z"/>
		<path d="M310.494,99.829h-8.067c-5.522,0-10,4.477-10,10s4.478,10,10,10h8.067c5.522,0,10-4.477,10-10    S316.017,99.829,310.494,99.829z"/>
		<path d="M270.159,99.829h-78.653c-5.522,0-10,4.477-10,10s4.478,10,10,10h78.653c5.522,0,10-4.477,10-10    S275.682,99.829,270.159,99.829z"/>
	</g>
</g>















</svg>