<svg width="79" height="54" viewBox="0 0 79 54" fill="none" xmlns="http://www.w3.org/2000/svg">
<path id="vector 04" d="M10.1062 51.8164C10.8728 52.9535 11.9495 53.5985 13.0763 53.5968L29.0119 53.5669C30.2695 53.5646 31.5091 53.1591 32.6302 52.3833L68.1492 27.838C71.4135 25.5822 74.3396 22.3621 76.3306 18.1446C78.5658 13.4101 78.8088 9.98392 77.9262 7.56347C77.046 5.14137 74.906 3.3626 70.8153 3.0002C67.1714 2.6777 63.5469 3.98434 60.2827 6.23855L48.2571 14.5489L21.5593 0.907247C21.2383 0.612767 20.8653 0.440396 20.479 0.407955C20.0927 0.375514 19.707 0.484181 19.3619 0.722722L11.3355 6.27013C10.0329 7.16949 9.71799 9.53674 10.7044 11.0129L29.7749 27.321L17.1756 36.0287L8.34343 29.9659C8.03914 29.757 7.70304 29.6484 7.36227 29.649C7.02149 29.6496 6.68559 29.7593 6.38168 29.9692L1.48282 33.3555C0.208352 34.2366 -0.127354 36.534 0.802857 38.0235L10.1062 51.8164Z" fill="#9DD0FF"/>
</svg>
