<svg width="79" height="54" viewBox="0 0 79 54" fill="none" xmlns="http://www.w3.org/2000/svg">
<path id="vector 03" d="M10.4455 52.0366C11.2121 53.1737 12.2888 53.8187 13.4156 53.8171L29.3512 53.7871C30.6088 53.7848 31.8484 53.3794 32.9695 52.6035L68.4885 28.0583C71.7528 25.8024 74.6789 22.5823 76.6699 18.3648C78.9051 13.6303 79.1481 10.2041 78.2655 7.78369C77.3853 5.36158 75.2453 3.58282 71.1546 3.22042C67.5107 2.89791 63.8862 4.20455 60.622 6.45876L48.5964 14.7691L21.8986 1.12746C21.5776 0.832982 21.2046 0.66061 20.8183 0.628169C20.432 0.595728 20.0463 0.704396 19.7012 0.942936L11.6748 6.49035C10.3722 7.3897 10.0573 9.75695 11.0437 11.2332L30.1142 27.5412L17.5148 36.2489L8.68272 30.1861C8.37843 29.9772 8.04233 29.8686 7.70156 29.8692C7.36078 29.8698 7.02488 29.9795 6.72098 30.1894L1.82211 33.5757C0.547647 34.4568 0.211941 36.7542 1.14215 38.2437L10.4455 52.0366Z" fill="#E7F3FF"/>
</svg>
