<svg width="41" height="27" viewBox="0 0 41 27" fill="none" xmlns="http://www.w3.org/2000/svg">
<path id="vector 05" d="M5.55419 25.864C5.94566 26.4326 6.49546 26.7551 7.07083 26.7542L15.2082 26.7393C15.8504 26.7381 16.4833 26.5354 17.0558 26.1475L35.1931 13.8748C36.86 12.7469 38.3542 11.1369 39.3709 9.02812C40.5123 6.66087 40.6363 4.94777 40.1856 3.73755C39.7362 2.52649 38.6434 1.63711 36.5546 1.45591C34.6938 1.29466 32.8431 1.94798 31.1762 3.07508L25.0355 7.23024L11.4026 0.409434C11.2386 0.262194 11.0482 0.176008 10.8509 0.159788C10.6537 0.143567 10.4568 0.197901 10.2805 0.317171L6.18191 3.09088C5.51679 3.54055 5.35596 4.72418 5.85963 5.46228L15.5978 13.6163L9.16407 17.9701L4.65405 14.9388C4.49867 14.8343 4.32705 14.78 4.15304 14.7803C3.97902 14.7806 3.8075 14.8354 3.65231 14.9404L1.15077 16.6336C0.499976 17.0741 0.328552 18.2228 0.803553 18.9676L5.55419 25.864Z" fill="#C8E4FF"/>
</svg>
