<svg width="25" height="24" viewBox="0 0 25 24" fill="none" xmlns="http://www.w3.org/2000/svg">
<g id="btnNotifications">
<g id="bell">
<path id="shape01" d="M10.975 2.99603C10.4788 2.99603 10.0762 2.59336 10.0762 2.09721V1.19838C10.0762 0.702233 10.4788 0.299561 10.975 0.299561C11.4711 0.299561 11.8738 0.702233 11.8738 1.19838V2.09721C11.8738 2.59336 11.4711 2.99603 10.975 2.99603Z" fill="#595959"/>
<path id="shape02" d="M18.8188 10.8406C18.3226 10.8406 17.92 10.4379 17.92 9.94178C17.92 6.28896 14.9539 3.17634 11.3082 3.00376C7.6581 2.83523 4.4039 5.6463 4.0601 9.278C4.03943 9.49506 4.02909 9.71797 4.02909 9.94178C4.02909 10.4379 3.62642 10.8406 3.13027 10.8406C2.63412 10.8406 2.23145 10.4379 2.23145 9.94178C2.23145 9.66134 2.24448 9.38091 2.27054 9.10857C2.70333 4.53536 6.80062 0.992196 11.3932 1.20836C15.9835 1.42543 19.7176 5.3434 19.7176 9.94178C19.7176 10.4384 19.3149 10.8406 18.8188 10.8406Z" fill="#595959"/>
<path id="shape03" d="M20.504 16.9709C20.2825 16.9709 20.06 16.8891 19.8861 16.7251C18.6367 15.5422 17.9199 13.8767 17.9199 12.1559C17.9199 11.6598 18.3226 11.2571 18.8187 11.2571C19.3149 11.2571 19.7176 11.6598 19.7176 12.1559C19.7176 13.385 20.2294 14.5751 21.122 15.4195C21.4824 15.7606 21.4981 16.3296 21.157 16.6905C20.9804 16.8765 20.7422 16.9709 20.504 16.9709Z" fill="#595959"/>
<path id="shape04" d="M1.44479 16.9709C1.20615 16.9709 0.96841 16.877 0.791791 16.69C0.450687 16.3296 0.466416 15.7606 0.826845 15.4195C1.71938 14.5751 2.23126 13.3855 2.23126 12.1559C2.23126 11.6598 2.63393 11.2571 3.13008 11.2571C3.62623 11.2571 4.02891 11.6598 4.02891 12.1559C4.02891 13.8776 3.31209 15.5431 2.06273 16.7251C1.88836 16.8891 1.66635 16.9709 1.44479 16.9709Z" fill="#595959"/>
<path id="shape05" d="M10.9746 23.6691C8.53877 23.6691 6.48047 21.6108 6.48047 19.1749C6.48047 18.6788 6.88314 18.2761 7.37929 18.2761C7.87544 18.2761 8.27812 18.6788 8.27812 19.1749C8.27812 20.6364 9.5131 21.8714 10.9746 21.8714C12.4361 21.8714 13.6711 20.6364 13.6711 19.1749C13.6711 18.6788 14.0737 18.2761 14.5699 18.2761C15.066 18.2761 15.4687 18.6788 15.4687 19.1749C15.4687 21.6108 13.4104 23.6691 10.9746 23.6691Z" fill="#595959"/>
<path id="shape06" d="M2.68032 20.0737C1.5851 20.0737 0.610779 19.4041 0.19777 18.3678C-0.215689 17.3301 0.0310381 16.1728 0.826497 15.4196C1.18692 15.0781 1.75543 15.0938 2.09743 15.4542C2.43854 15.8147 2.42326 16.3836 2.06283 16.7252C1.66914 17.0982 1.81385 17.5678 1.86778 17.7026C1.92126 17.8365 2.13833 18.2761 2.68032 18.2761C3.17647 18.2761 3.57914 18.6787 3.57914 19.1749C3.57914 19.671 3.17692 20.0737 2.68032 20.0737Z" fill="#595959"/>
<path id="shape07" d="M19.268 20.0737C18.7718 20.0737 18.3691 19.6711 18.3691 19.1749C18.3691 18.6788 18.7718 18.2761 19.268 18.2761C19.8104 18.2761 20.0279 17.8348 20.0818 17.6995C20.1353 17.5651 20.2796 17.0973 19.8859 16.7247C19.5255 16.3832 19.5097 15.8147 19.8508 15.4538C20.1924 15.0934 20.7609 15.0776 21.1218 15.4187C21.9172 16.172 22.1644 17.3283 21.7519 18.3642C21.3384 19.4028 20.3632 20.0737 19.268 20.0737Z" fill="#595959"/>
<path id="shape08" d="M3.13027 13.0544C2.63412 13.0544 2.23145 12.6517 2.23145 12.1556V9.94179C2.23145 9.44564 2.63412 9.04297 3.13027 9.04297C3.62643 9.04297 4.0291 9.44564 4.0291 9.94179V12.1556C4.0291 12.6517 3.62688 13.0544 3.13027 13.0544Z" fill="#595959"/>
<path id="shape09" d="M18.8187 13.0544C18.3226 13.0544 17.9199 12.6517 17.9199 12.1556V9.94179C17.9199 9.44564 18.3226 9.04297 18.8187 9.04297C19.3149 9.04297 19.7176 9.44564 19.7176 9.94179V12.1556C19.7176 12.6517 19.3149 13.0544 18.8187 13.0544Z" fill="#595959"/>
<path id="shape10" d="M19.2679 20.0738H2.68007C2.18392 20.0738 1.78125 19.6711 1.78125 19.1749C1.78125 18.6788 2.18392 18.2761 2.68007 18.2761H19.2674C19.7636 18.2761 20.1662 18.6788 20.1662 19.1749C20.1662 19.6711 19.764 20.0738 19.2679 20.0738Z" fill="#595959"/>
</g>
<circle id="dot" cx="18.764" cy="5.39294" r="4.89294" fill="#2395FF" stroke="white"/>
</g>
</svg>
