<svg width="17" height="17" viewBox="0 0 17 17" fill="none" xmlns="http://www.w3.org/2000/svg">
<g id="transfer 2" clip-path="url(#clip0_13936_944)">
<path id="Vector" d="M12.3094 16.6888L9.43287 13.8123C9.22539 13.6048 9.12166 13.3329 9.12166 13.0609C9.12166 12.789 9.22539 12.5171 9.43287 12.3096C9.84781 11.8947 10.5205 11.8947 10.9355 12.3096L11.9982 13.3724L11.9982 2.23291C11.9982 1.64611 12.4739 1.17041 13.0607 1.17041C13.6475 1.17041 14.1232 1.64611 14.1232 2.23291L14.1232 13.3724L15.1859 12.3096C15.6009 11.8947 16.2736 11.8947 16.6886 12.3096C17.1035 12.7246 17.1035 13.3973 16.6886 13.8123L13.812 16.6888C13.3971 17.1037 12.7243 17.1037 12.3094 16.6888ZM5.00132 14.186L5.00132 3.62761L6.06405 4.69037C6.47899 5.10528 7.15172 5.10528 7.56666 4.69037C7.9816 4.2754 7.9816 3.6027 7.56666 3.18773L4.69011 0.311179C4.27517 -0.103727 3.60244 -0.103727 3.1875 0.311179L0.310945 3.18773C0.10346 3.39522 -0.000267189 3.66712 -0.000267201 3.93905C-0.000267213 4.21099 0.10346 4.48289 0.310945 4.69037C0.725885 5.10528 1.39861 5.10528 1.81355 4.69037L2.87629 3.62761L2.87628 14.186C2.87628 14.7728 3.35199 15.2485 3.93878 15.2485C4.52558 15.2485 5.00132 14.7728 5.00132 14.186Z" fill="black"/>
</g>
<defs>
<clipPath id="clip0_13936_944">
<rect width="17" height="17" fill="white" transform="translate(17) rotate(90)"/>
</clipPath>
</defs>
</svg>
